<svg width="800" height="600" viewBox="0 0 800 600" fill="none" xmlns="http://www.w3.org/2000/svg">
  <defs>
    <linearGradient id="fade" x1="0" y1="0" x2="1" y2="0">
      <stop offset="0%" stop-color="#2e4a33" stop-opacity="0.1"/>
      <stop offset="50%" stop-color="#2e4a33" stop-opacity="0.3"/>
      <stop offset="100%" stop-color="#2e4a33" stop-opacity="0.05"/>
    </linearGradient>
  </defs>
  <!-- Generated abstract wave lines mimicking the reference -->
  <g stroke="url(#fade)" stroke-width="1.5" fill="none">
    <path d="M0,400 C150,350 300,550 450,450 S650,250 800,300" />
    <path d="M0,410 C155,360 305,560 455,460 S655,260 800,310" />
    <path d="M0,420 C160,370 310,570 460,470 S660,270 800,320" />
    <path d="M0,430 C165,380 315,580 465,480 S665,280 800,330" />
    <path d="M0,440 C170,390 320,590 470,490 S670,290 800,340" />
    <path d="M0,450 C175,400 325,600 475,500 S675,300 800,350" />
    <path d="M0,460 C180,410 330,610 480,510 S680,310 800,360" />
    <path d="M0,470 C185,420 335,620 485,520 S685,320 800,370" />
    <path d="M0,480 C190,430 340,630 490,530 S690,330 800,380" />
    <path d="M0,490 C195,440 345,640 495,540 S695,340 800,390" />
    <path d="M0,500 C200,450 350,650 500,550 S700,350 800,400" />
    <path d="M0,510 C205,460 355,660 505,560 S705,360 800,410" />
    <path d="M0,520 C210,470 360,670 510,570 S710,370 800,420" />
    <path d="M0,530 C215,480 365,680 515,580 S715,380 800,430" />
    <path d="M0,540 C220,490 370,690 520,590 S720,390 800,440" />
    <path d="M0,550 C225,500 375,700 525,600 S725,400 800,450" />
  </g>
</svg>
